<svg width="30" height="24" viewBox="0 0 30 24" fill="none" xmlns="http://www.w3.org/2000/svg">
<g id="ConnexisIcon_blue" clip-path="url(#clip0_1131_204)">
<g id="g14">
<path id="path2" d="M0.227398 9.20473L1.26633 10.3381C1.5749 10.6747 2.07008 10.6712 2.37221 10.3417L9.4767 2.59137C9.78308 2.25714 9.78308 1.71571 9.4767 1.38141L8.43776 0.248028C8.1357 -0.0814943 7.64045 -0.0850398 7.33189 0.251574L4.56777 3.26698C4.44802 3.39762 4.44908 3.6083 4.56777 3.73778L4.78677 3.97669L3.64533 5.22189L3.42633 4.98298C3.30765 4.85351 3.11452 4.85235 2.99477 4.98298L0.22746 8.00187C-0.0757904 8.33262 -0.0757895 8.87405 0.227398 9.20473Z" fill="#148CF6"/>
<path id="path4" d="M20.5063 17.8382L16.3529 22.3692L17.2262 23.3219C17.382 23.4853 17.5738 23.6095 17.7896 23.6619L18.8084 23.9234C19.0721 23.9888 19.3478 23.9038 19.5396 23.6945L21.7153 21.3211C21.9071 21.1119 21.9849 20.7981 21.9191 20.5104L21.6614 19.3597C21.6074 19.1309 21.4996 18.9282 21.3497 18.7582L20.5063 17.8382Z" fill="#148CF6"/>
<path id="polygon6" d="M19.6072 16.864L18.2484 15.3752L14.0951 19.9061L15.4538 21.395L19.6072 16.864Z" fill="#148CF6"/>
<path id="polygon8" d="M17.3494 14.401L15.9907 12.9122L11.8373 17.4431L13.1961 18.932L17.3494 14.401Z" fill="#148CF6"/>
<path id="path10" d="M3.95517 10.4615L8.20579 15.0986C8.51091 15.4222 9.01104 15.4222 9.31191 15.0939L9.49841 14.8905L10.9393 16.4716L15.0925 11.9409L13.6516 10.3597L13.8296 10.1656C14.1432 9.82341 14.139 9.2918 13.8338 8.95887L9.58322 4.32182L3.95517 10.4615Z" fill="#148CF6"/>
<path id="path12" d="M19.1259 9.2423L20.3433 4.38837C20.4388 4.01337 20.7085 3.7191 21.0547 3.61758L25.4994 2.28946C25.8526 2.18528 26.2274 2.29205 26.4852 2.5733L29.7029 6.08357C29.9607 6.36482 30.061 6.77623 29.9631 7.15907L28.7481 12.0104C28.6527 12.3854 28.3829 12.6797 28.0392 12.7838L23.5897 14.1118C23.2388 14.2186 22.864 14.1066 22.6062 13.8254L19.3885 10.3151C19.1307 10.0339 19.0304 9.62773 19.1259 9.2423ZM22.3772 10.565C23.5756 11.8723 25.5185 11.8723 26.7169 10.565C27.9125 9.26064 27.9125 7.14114 26.7142 5.83382C25.5185 4.52951 23.5757 4.52951 22.38 5.83376C21.1816 7.14107 21.1816 9.26064 22.3772 10.565Z" fill="#148CF6"/>
</g>
</g>
<defs>
<clipPath id="clip0_1131_204">
<rect width="30" height="23.945" fill="white"/>
</clipPath>
</defs>
</svg>
