<svg width="30" height="24" viewBox="0 0 30 24" fill="none" xmlns="http://www.w3.org/2000/svg">
<g clip-path="url(#clip0_848_1065)">
<path d="M0.227337 9.20473L1.26627 10.3381C1.57484 10.6747 2.07002 10.6712 2.37215 10.3417L9.47664 2.59137C9.78301 2.25714 9.78301 1.71571 9.47664 1.38141L8.4377 0.248028C8.13564 -0.0814943 7.64039 -0.0850398 7.33183 0.251574L4.56771 3.26698C4.44796 3.39762 4.44902 3.6083 4.56771 3.73778L4.78671 3.97669L3.64527 5.22189L3.42627 4.98298C3.30758 4.85351 3.11446 4.85235 2.99471 4.98298L0.227399 8.00187C-0.075851 8.33262 -0.0758505 8.87405 0.227337 9.20473Z" fill="#8d8d8d"/>
<path d="M20.5062 17.8381L16.3528 22.3691L17.2261 23.3218C17.3819 23.4852 17.5738 23.6095 17.7895 23.6618L18.8084 23.9234C19.0721 23.9887 19.3478 23.9037 19.5396 23.6945L21.7152 21.3211C21.907 21.1118 21.9849 20.798 21.919 20.5103L21.6613 19.3596C21.6074 19.1308 21.4995 18.9281 21.3496 18.7581L20.5062 17.8381Z" fill="#8d8d8d"/>
<path d="M19.6072 16.8641L18.2484 15.3752L14.0951 19.9062L15.4538 21.395L19.6072 16.8641Z" fill="#8d8d8d"/>
<path d="M17.3494 14.4009L15.9906 12.9121L11.8372 17.4431L13.196 18.9319L17.3494 14.4009Z" fill="#8d8d8d"/>
<path d="M3.95517 10.4615L8.20579 15.0985C8.51091 15.4222 9.01104 15.4221 9.31191 15.0939L9.49841 14.8904L10.9393 16.4716L15.0925 11.9408L13.6516 10.3597L13.8296 10.1655C14.1432 9.82337 14.139 9.29175 13.8338 8.95882L9.58322 4.32178L3.95517 10.4615Z" fill="#8d8d8d"/>
<path d="M19.1259 9.24224L20.3433 4.38831C20.4388 4.01331 20.7085 3.71904 21.0547 3.61751L25.4994 2.2894C25.8526 2.18522 26.2274 2.29199 26.4852 2.57324L29.7029 6.08351C29.9607 6.36476 30.061 6.77617 29.9631 7.15901L28.7481 12.0104C28.6527 12.3854 28.3829 12.6796 28.0392 12.7837L23.5897 14.1118C23.2388 14.2186 22.864 14.1065 22.6062 13.8254L19.3885 10.3151C19.1307 10.0338 19.0304 9.62767 19.1259 9.24224ZM22.3772 10.5649C23.5756 11.8722 25.5185 11.8722 26.7169 10.5649C27.9125 9.26058 27.9125 7.14108 26.7142 5.83376C25.5185 4.52945 23.5757 4.52945 22.38 5.8337C21.1816 7.14101 21.1816 9.26058 22.3772 10.5649Z" fill="#8d8d8d"/>
</g>
<defs>
<clipPath id="clip0_848_1065">
<rect width="30" height="23.945" fill="white"/>
</clipPath>
</defs>
</svg>
